<?xml version="1.0" encoding="UTF-8" standalone="no"?>
<!-- Created with Inkscape (http://www.inkscape.org/) -->

<svg
   width="1869.9191mm"
   height="2004.1263mm"
   viewBox="0 0 1869.919 2004.1263"
   version="1.1"
   id="svg5"
   inkscape:version="1.1.2 (0a00cf5339, 2022-02-04)"
   sodipodi:docname="all.svg"
   xmlns:inkscape="http://www.inkscape.org/namespaces/inkscape"
   xmlns:sodipodi="http://sodipodi.sourceforge.net/DTD/sodipodi-0.dtd"
   xmlns="http://www.w3.org/2000/svg"
   xmlns:svg="http://www.w3.org/2000/svg">
  <sodipodi:namedview
     id="namedview7"
     pagecolor="#ffffff"
     bordercolor="#666666"
     borderopacity="1.0"
     inkscape:pageshadow="2"
     inkscape:pageopacity="0.0"
     inkscape:pagecheckerboard="0"
     inkscape:document-units="mm"
     showgrid="false"
     inkscape:zoom="0.056568542"
     inkscape:cx="9590.1357"
     inkscape:cy="5329.8174"
     inkscape:window-width="1920"
     inkscape:window-height="1014"
     inkscape:window-x="0"
     inkscape:window-y="38"
     inkscape:window-maximized="1"
     inkscape:current-layer="layer1" />
  <defs
     id="defs2" />
  <g
     inkscape:label="Слой 1"
     inkscape:groupmode="layer"
     id="layer1"
     transform="translate(823.40171,866.11633)">
    <circle
       style="fill:#ffcc00;stroke-width:13.313;stroke-linecap:round"
       id="path1030"
       cx="111.55783"
       cy="135.94684"
       r="30" />
    <ellipse
       style="fill:none;stroke:#fbf7ff;stroke-width:0.999997;stroke-linecap:round;stroke-miterlimit:4;stroke-dasharray:none;stroke-opacity:1"
       id="circle822"
       cx="111.55783"
       cy="135.94684"
       rx="74.646187"
       ry="80.006546" />
    <ellipse
       style="fill:none;stroke:#fbf7ff;stroke-width:0.999996;stroke-linecap:round;stroke-miterlimit:4;stroke-dasharray:none;stroke-opacity:1"
       id="circle886"
       cx="111.55783"
       cy="135.94684"
       rx="129.18729"
       ry="138.46425" />
    <ellipse
       style="fill:none;stroke:#fbf7ff;stroke-width:0.999996;stroke-linecap:round;stroke-miterlimit:4;stroke-dasharray:none;stroke-opacity:1"
       id="circle888"
       cx="111.55783"
       cy="135.94684"
       rx="218.46547"
       ry="234.15352" />
    <ellipse
       style="fill:none;stroke:#fbf7ff;stroke-width:0.999996;stroke-linecap:round;stroke-miterlimit:4;stroke-dasharray:none;stroke-opacity:1"
       id="circle899"
       cx="111.55783"
       cy="135.94684"
       rx="351.37802"
       ry="376.61053" />
    <ellipse
       style="fill:none;stroke:#fbf7ff;stroke-width:0.999996;stroke-linecap:round;stroke-miterlimit:4;stroke-dasharray:none;stroke-opacity:1"
       id="circle901"
       cx="111.55782"
       cy="135.94684"
       rx="564.69275"
       ry="605.24347" />
    <ellipse
       style="fill:none;stroke:#fbf7ff;stroke-width:0.999995;stroke-linecap:round;stroke-miterlimit:4;stroke-dasharray:none;stroke-opacity:1"
       id="circle903"
       cx="111.55782"
       cy="135.94684"
       rx="934.45953"
       ry="1001.5632" />
    <ellipse
       style="fill:none;stroke:#fbf7ff;stroke-width:0.999996;stroke-linecap:round;stroke-miterlimit:4;stroke-dasharray:none;stroke-opacity:1"
       id="circle905"
       cx="111.55782"
       cy="135.94684"
       rx="1811.833"
       ry="1941.941" />
    <g
       id="g1040"
       transform="translate(1274.8948,-902.02259)">
      <rect
         style="fill:#040013;fill-opacity:1;stroke-width:4.013;stroke-linecap:round;stroke-miterlimit:4;stroke-dasharray:none;paint-order:markers stroke fill"
         id="rect846"
         width="1600"
         height="900.00006"
         x="-23.635109"
         y="562.85498"
         inkscape:export-filename="/home/rostik/Desktop/old/astral/concept_render1b.png"
         inkscape:export-xdpi="100.9"
         inkscape:export-ydpi="100.9" />
      <path
         style="font-weight:bold;font-size:167.185px;line-height:1.25;font-family:'Noto Looped Lao';-inkscape-font-specification:'Noto Looped Lao, Bold';fill:#fae667;fill-opacity:1;stroke:none;stroke-width:11.6757;stroke-linecap:round;stroke-opacity:1;paint-order:markers stroke fill"
         id="path20624-0"
         sodipodi:type="arc"
         sodipodi:cx="776.36487"
         sodipodi:cy="1012.855"
         sodipodi:rx="65.147911"
         sodipodi:ry="65.147911"
         sodipodi:start="0"
         sodipodi:end="6.2799215"
         sodipodi:open="true"
         sodipodi:arc-type="arc"
         d="m 841.51278,1012.855 a 65.147911,65.147911 0 0 1 -65.09475,65.1479 65.147911,65.147911 0 0 1 -65.20099,-65.0416 65.147911,65.147911 0 0 1 64.98836,-65.25404 65.147911,65.147911 0 0 1 65.30703,64.93514" />
      <path
         style="font-weight:bold;font-size:167.185px;line-height:1.25;font-family:'Noto Looped Lao';-inkscape-font-specification:'Noto Looped Lao, Bold';fill:none;fill-opacity:1;stroke:#fbf7ff;stroke-width:4.091;stroke-linecap:round;stroke-miterlimit:4;stroke-dasharray:none;stroke-opacity:1;paint-order:markers stroke fill"
         id="path81342"
         sodipodi:type="arc"
         sodipodi:cx="776.36487"
         sodipodi:cy="1012.855"
         sodipodi:rx="158.198"
         sodipodi:ry="158.198"
         sodipodi:start="0"
         sodipodi:end="6.2799215"
         sodipodi:open="true"
         sodipodi:arc-type="arc"
         d="M 934.56287,1012.855 A 158.198,158.198 0 0 1 776.49395,1171.0529 158.198,158.198 0 0 1 618.16708,1013.1131 158.198,158.198 0 0 1 775.97762,854.65746 158.198,158.198 0 0 1 934.56202,1012.3387" />
      <path
         style="font-weight:bold;font-size:167.185px;line-height:1.25;font-family:'Noto Looped Lao';-inkscape-font-specification:'Noto Looped Lao, Bold';fill:none;fill-opacity:1;stroke:#fbf7ff;stroke-width:4.091;stroke-linecap:round;stroke-miterlimit:4;stroke-dasharray:none;stroke-opacity:1;paint-order:markers stroke fill"
         id="path81380"
         sodipodi:type="arc"
         sodipodi:cx="776.36481"
         sodipodi:cy="1012.855"
         sodipodi:rx="251.68671"
         sodipodi:ry="251.68671"
         sodipodi:start="0"
         sodipodi:end="6.2799215"
         sodipodi:open="true"
         sodipodi:arc-type="arc"
         d="M 1028.0515,1012.855 A 251.68671,251.68671 0 0 1 776.57017,1264.5416 251.68671,251.68671 0 0 1 524.67844,1013.2657 251.68671,251.68671 0 0 1 775.74872,761.16903 251.68671,251.68671 0 0 1 1028.0502,1012.0335" />
      <path
         style="font-weight:bold;font-size:167.185px;line-height:1.25;font-family:'Noto Looped Lao';-inkscape-font-specification:'Noto Looped Lao, Bold';fill:none;fill-opacity:1;stroke:#fbf7ff;stroke-width:4.091;stroke-linecap:round;stroke-miterlimit:4;stroke-dasharray:none;stroke-opacity:1;paint-order:markers stroke fill"
         id="path81382"
         sodipodi:type="arc"
         sodipodi:cx="776.36475"
         sodipodi:cy="1012.855"
         sodipodi:rx="362.09927"
         sodipodi:ry="362.09927"
         sodipodi:start="0"
         sodipodi:end="6.2799215"
         sodipodi:open="true"
         sodipodi:arc-type="arc"
         d="M 1138.464,1012.855 A 362.09927,362.09927 0 0 1 776.6602,1374.9541 362.09927,362.09927 0 0 1 414.26595,1013.4459 362.09927,362.09927 0 0 1 775.47838,650.75679 362.09927,362.09927 0 0 1 1138.4621,1011.6732" />
      <g
         id="g81410"
         transform="translate(0,471.93088)"
         inkscape:export-filename="/home/rostik/Desktop/old/astral/concept_render1.png"
         inkscape:export-xdpi="100.9"
         inkscape:export-ydpi="100.9">
        <rect
           style="fill:#040013;fill-opacity:1;stroke:#fbf7ff;stroke-width:13.313;stroke-linecap:round;stroke-miterlimit:4;stroke-dasharray:none;stroke-opacity:1;paint-order:markers stroke fill"
           id="rect3628"
           width="1600"
           height="112.5"
           x="-23.635109"
           y="90.924065" />
        <g
           id="g24174"
           transform="matrix(0.62897329,0,0,0.62897329,356.01434,185.78428)"
           style="font-weight:bold;font-size:167.185px;line-height:1.25;font-family:'Noto Looped Lao';-inkscape-font-specification:'Noto Looped Lao, Bold';stroke-width:0.420661">
          <g
             id="g24164"
             style="stroke-width:0.420661"
             transform="translate(53.725136)">
            <path
               id="path24158"
               style="fill:#9e97b5;fill-opacity:1;stroke-width:6.38022;stroke-linecap:round;paint-order:markers stroke fill"
               d="m 548.43156,219.98063 78.25057,5.0196 v 20.51166 l -78.25057,-5.0196 z"
               sodipodi:nodetypes="ccccc"
               transform="matrix(0.96592583,0.25881905,0.25881905,-0.96592583,0,0)" />
            <path
               id="path24160"
               style="fill:#f2efff;fill-opacity:1;stroke-width:1.58989"
               d="M 2665.8691,364.99805 2506.002,818.05664 H 2609 l 115.002,-382.91992 115.0019,382.91992 H 2942.002 L 2782.1348,364.99805 Z"
               transform="matrix(0.26458333,0,0,0.26458333,-108.05254,-218.64084)"
               sodipodi:nodetypes="cccccccc" />
            <rect
               style="fill:#f2efff;fill-opacity:1;stroke:none;stroke-width:6.38022;stroke-linecap:round;stroke-opacity:1;paint-order:markers stroke fill"
               id="rect24162"
               width="100.94379"
               height="20.511662"
               x="564.53479"
               y="100.72153"
               transform="rotate(-15)" />
          </g>
        </g>
        <g
           style="fill:none;stroke-width:2.45747"
           id="g42444"
           transform="matrix(2.6916408,0,0,2.6916408,1482.7797,104.10781)">
          <circle
             cx="16"
             cy="16"
             r="14"
             fill="url(#paint0_linear_87_7225)"
             id="circle42424"
             style="fill:#f2efff;fill-opacity:1;stroke-width:2.45747" />
          <path
             d="M 24.070373,9.4673273 C 24.216502,8.5226757 23.318386,7.7770569 22.47844,8.1458377 L 5.7494484,15.49073 c -0.6023285,0.264462 -0.5582672,1.176885 0.066438,1.375789 l 3.4498873,1.098661 c 0.6585166,0.209693 1.3714503,0.101215 1.9464643,-0.296009 l 7.778118,-5.373683 c 0.234556,-0.162078 0.490222,0.171461 0.289793,0.377988 l -5.598856,5.772427 c -0.543114,0.560002 -0.435335,1.5089 0.21802,1.918552 l 6.268514,3.930927 c 0.703082,0.440848 1.607531,-0.002 1.739,-0.851673 z"
             fill="#ffffff"
             id="path42426"
             style="fill:#9e97b5;fill-opacity:1;stroke-width:5.34701" />
        </g>
        <g
           style="fill:none;stroke-width:2.45747"
           id="g66344"
           transform="matrix(2.6916408,0,0,2.6916408,-16.454806,104.5019)">
          <circle
             cx="16"
             cy="16"
             r="14"
             fill="url(#paint0_linear_87_7225)"
             id="circle66340"
             style="fill:#f2efff;fill-opacity:1;stroke-width:2.45747" />
          <path
             d="M 24.070373,9.4673273 C 24.216502,8.5226757 23.318386,7.7770569 22.47844,8.1458377 L 5.7494484,15.49073 c -0.6023285,0.264462 -0.5582672,1.176885 0.066438,1.375789 l 3.4498873,1.098661 c 0.6585166,0.209693 1.3714503,0.101215 1.9464643,-0.296009 l 7.778118,-5.373683 c 0.234556,-0.162078 0.490222,0.171461 0.289793,0.377988 l -5.598856,5.772427 c -0.543114,0.560002 -0.435335,1.5089 0.21802,1.918552 l 6.268514,3.930927 c 0.703082,0.440848 1.607531,-0.002 1.739,-0.851673 z"
             fill="#ffffff"
             id="path66342"
             style="fill:#9e97b5;fill-opacity:1;stroke-width:5.34701" />
        </g>
        <g
           id="g69556"
           transform="matrix(0.68653585,0,0,0.68653585,448.30908,119.2449)"
           style="stroke-width:1.45659">
          <path
             id="polygon66662"
             style="fill:#f2efff;fill-opacity:1;stroke-width:0.60217"
             d="m 1446.2029,-14.152854 c -30.2873,0 -54.8342,24.54685 -54.8342,54.834144 0,30.287297 24.5469,54.834144 54.8342,54.834144 30.2873,0 54.8341,-24.546847 54.8341,-54.834144 0,-30.287294 -24.5468,-54.834144 -54.8341,-54.834144 z"
             sodipodi:nodetypes="sssss" />
          <path
             id="rect66472"
             style="opacity:1;fill:#9e97b5;fill-opacity:1;stroke:none;stroke-width:9.63536;stroke-linecap:round;stroke-miterlimit:4;stroke-dasharray:none;stroke-opacity:1;paint-order:markers stroke fill"
             d="m 1421.0497,13.755097 c 0,0 -13.2212,0 -13.2212,13.221123 v 27.431592 c 0,0 0,13.221126 13.2212,13.221126 h 50.3062 c 0,0 13.2211,0 13.2211,-13.221126 V 26.97622 c 0,0 10e-5,-13.221123 -13.2211,-13.221123 z m 14.93,12.201807 25.1231,14.750103 -25.1231,14.7501 z"
             sodipodi:nodetypes="cscscscsccccc" />
        </g>
        <g
           id="g69779"
           transform="matrix(0.68653585,0,0,0.68653585,-880.05983,119.2449)"
           style="stroke-width:1.45659">
          <path
             id="path69775"
             style="fill:#f2efff;fill-opacity:1;stroke-width:0.60217"
             d="m 1446.2029,-14.152854 c -30.2873,0 -54.8342,24.54685 -54.8342,54.834144 0,30.287297 24.5469,54.834144 54.8342,54.834144 30.2873,0 54.8341,-24.546847 54.8341,-54.834144 0,-30.287294 -24.5468,-54.834144 -54.8341,-54.834144 z"
             sodipodi:nodetypes="sssss" />
          <path
             id="path69777"
             style="opacity:1;fill:#9e97b5;fill-opacity:1;stroke:none;stroke-width:9.63536;stroke-linecap:round;stroke-miterlimit:4;stroke-dasharray:none;stroke-opacity:1;paint-order:markers stroke fill"
             d="m 1421.0497,13.755097 c 0,0 -13.2212,0 -13.2212,13.221123 v 27.431592 c 0,0 0,13.221126 13.2212,13.221126 h 50.3062 c 0,0 13.2211,0 13.2211,-13.221126 V 26.97622 c 0,0 10e-5,-13.221123 -13.2211,-13.221123 z m 14.93,12.201807 25.1231,14.750103 -25.1231,14.7501 z"
             sodipodi:nodetypes="cscscscsccccc" />
        </g>
        <g
           id="g80132">
          <path
             d="m 197.4253,184.89316 c -18.1326,0.0684 -33.6214,-13.06218 -36.522,-30.96141 10.8167,-55.323187 78.42894,-42.2978 72.87362,-0.0912 -2.85031,17.8717 -18.25407,31.03004 -36.35162,31.0526 z"
             id="path77655"
             style="fill:#9e97b5;fill-opacity:1;stroke:none;stroke-width:8.81942;stroke-opacity:1"
             sodipodi:nodetypes="cccc" />
          <path
             d="m 197.56949,111.20951 c -18.1326,-0.0684 -33.6214,13.06218 -36.522,30.96141 -2.90059,17.89922 7.64877,35.24933 24.875,40.91087 2.06645,0.5537 2.43261,0.32309 2.43261,-0.67207 v -7.39974 c -10.20955,2.21146 -12.38415,-4.82834 -12.38415,-4.82834 -0.68833,-2.28914 -2.18051,-4.25254 -4.20177,-5.52865 -3.35404,-2.28516 0.258,-2.21144 0.258,-2.21144 2.34387,0.3032 4.42078,1.66065 5.63922,3.68575 2.13091,3.78898 6.91646,5.15393 10.72555,3.05918 0.16793,-1.86847 0.99029,-3.61762 2.32203,-4.93892 -7.88752,-0.81086 -16.65963,-3.98061 -16.65963,-18.02335 -0.10661,-3.68038 1.21407,-7.25942 3.68576,-9.9884 -1.12217,-3.17184 -0.99033,-6.65254 0.36858,-9.7304 0,0 3.09604,-0.99516 10.13583,3.68576 6.03579,-1.62255 12.393,-1.62255 18.42879,0 7.03979,-4.75463 10.13584,-3.68576 10.13584,-3.68576 1.3589,3.07786 1.49075,6.55856 0.36857,9.7304 2.47169,2.72898 3.79237,6.30802 3.68576,9.9884 0,14.0796 -8.62467,17.17563 -16.84391,18.09707 1.79085,1.80012 2.71782,4.28547 2.54317,6.81866 v 11.26978 c 0,0.99516 0.54556,1.18758 2.46946,0.67207 17.19271,-5.65091 27.73922,-22.94798 24.88891,-40.81968 -2.85031,-17.8717 -18.25407,-31.03004 -36.35162,-31.0526 z"
             id="path69785"
             style="fill:#f2efff;fill-opacity:1;stroke:none;stroke-width:8.81942;stroke-opacity:1"
             sodipodi:nodetypes="cscscccccccccccccccccscsc" />
        </g>
        <g
           id="g80138"
           transform="translate(1158.9277)">
          <path
             d="m 197.4253,184.89316 c -18.1326,0.0684 -33.6214,-13.06218 -36.522,-30.96141 10.8167,-55.323187 78.42894,-42.2978 72.87362,-0.0912 -2.85031,17.8717 -18.25407,31.03004 -36.35162,31.0526 z"
             id="path80134"
             style="fill:#9e97b5;fill-opacity:1;stroke:none;stroke-width:8.81942;stroke-opacity:1"
             sodipodi:nodetypes="cccc" />
          <path
             d="m 197.56949,111.20951 c -18.1326,-0.0684 -33.6214,13.06218 -36.522,30.96141 -2.90059,17.89922 7.64877,35.24933 24.875,40.91087 2.06645,0.5537 2.43261,0.32309 2.43261,-0.67207 v -7.39974 c -10.20955,2.21146 -12.38415,-4.82834 -12.38415,-4.82834 -0.68833,-2.28914 -2.18051,-4.25254 -4.20177,-5.52865 -3.35404,-2.28516 0.258,-2.21144 0.258,-2.21144 2.34387,0.3032 4.42078,1.66065 5.63922,3.68575 2.13091,3.78898 6.91646,5.15393 10.72555,3.05918 0.16793,-1.86847 0.99029,-3.61762 2.32203,-4.93892 -7.88752,-0.81086 -16.65963,-3.98061 -16.65963,-18.02335 -0.10661,-3.68038 1.21407,-7.25942 3.68576,-9.9884 -1.12217,-3.17184 -0.99033,-6.65254 0.36858,-9.7304 0,0 3.09604,-0.99516 10.13583,3.68576 6.03579,-1.62255 12.393,-1.62255 18.42879,0 7.03979,-4.75463 10.13584,-3.68576 10.13584,-3.68576 1.3589,3.07786 1.49075,6.55856 0.36857,9.7304 2.47169,2.72898 3.79237,6.30802 3.68576,9.9884 0,14.0796 -8.62467,17.17563 -16.84391,18.09707 1.79085,1.80012 2.71782,4.28547 2.54317,6.81866 v 11.26978 c 0,0.99516 0.54556,1.18758 2.46946,0.67207 17.19271,-5.65091 27.73922,-22.94798 24.88891,-40.81968 -2.85031,-17.8717 -18.25407,-31.03004 -36.35162,-31.0526 z"
             id="path80136"
             style="fill:#f2efff;fill-opacity:1;stroke:none;stroke-width:8.81942;stroke-opacity:1"
             sodipodi:nodetypes="cscscccccccccccccccccscsc" />
        </g>
      </g>
      <path
         style="font-weight:bold;font-size:167.185px;line-height:1.25;font-family:'Noto Looped Lao';-inkscape-font-specification:'Noto Looped Lao, Bold';fill:#a1bcc0;fill-opacity:1;stroke:none;stroke-width:21.6701;stroke-linecap:round;stroke-opacity:1;paint-order:markers stroke fill"
         id="path81434"
         sodipodi:type="arc"
         sodipodi:cx="926.49408"
         sodipodi:cy="1012.855"
         sodipodi:rx="35.101242"
         sodipodi:ry="35.101242"
         sodipodi:start="0"
         sodipodi:end="6.2799215"
         sodipodi:open="true"
         sodipodi:arc-type="arc"
         d="m 961.59532,1012.855 a 35.101242,35.101242 0 0 1 -35.0726,35.1012 35.101242,35.101242 0 0 1 -35.12984,-35.0439 35.101242,35.101242 0 0 1 35.01528,-35.15846 35.101242,35.101242 0 0 1 35.18697,34.98656" />
      <path
         style="font-weight:bold;font-size:167.185px;line-height:1.25;font-family:'Noto Looped Lao';-inkscape-font-specification:'Noto Looped Lao, Bold';fill:#ecac54;fill-opacity:1;stroke:none;stroke-width:18.4933;stroke-linecap:round;stroke-opacity:1;paint-order:markers stroke fill"
         id="path82984"
         sodipodi:type="arc"
         sodipodi:cx="956.84613"
         sodipodi:cy="845.2196"
         sodipodi:rx="41.1311"
         sodipodi:ry="41.1311"
         sodipodi:start="0"
         sodipodi:end="6.2799215"
         sodipodi:open="true"
         sodipodi:arc-type="arc"
         d="m 997.97723,845.2196 a 41.1311,41.1311 0 0 1 -41.09754,41.13109 41.1311,41.1311 0 0 1 -41.1646,-41.06396 41.1311,41.1311 0 0 1 41.03036,-41.1981 41.1311,41.1311 0 0 1 41.23156,40.99673" />
      <path
         style="font-weight:bold;font-size:167.185px;line-height:1.25;font-family:'Noto Looped Lao';-inkscape-font-specification:'Noto Looped Lao, Bold';fill:#54ceec;fill-opacity:1;stroke:none;stroke-width:16.2911;stroke-linecap:round;stroke-opacity:1;paint-order:markers stroke fill"
         id="path87701"
         sodipodi:type="arc"
         sodipodi:cx="541.65375"
         sodipodi:cy="737.11505"
         sodipodi:rx="46.691029"
         sodipodi:ry="46.691029"
         sodipodi:start="0"
         sodipodi:end="6.2799215"
         sodipodi:open="true"
         sodipodi:arc-type="arc"
         d="m 588.34478,737.11505 a 46.691029,46.691029 0 0 1 -46.65293,46.69101 46.691029,46.691029 0 0 1 -46.72907,-46.61481 46.691029,46.691029 0 0 1 46.57667,-46.76709 46.691029,46.691029 0 0 1 46.80508,46.5385" />
      <path
         style="font-weight:bold;font-size:167.185px;line-height:1.25;font-family:'Noto Looped Lao';-inkscape-font-specification:'Noto Looped Lao, Bold';fill:#ec5b54;fill-opacity:1;stroke:none;stroke-width:16.2911;stroke-linecap:round;stroke-opacity:1;paint-order:markers stroke fill"
         id="path88171"
         sodipodi:type="arc"
         sodipodi:cx="1246.0681"
         sodipodi:cy="1235.0935"
         sodipodi:rx="46.691029"
         sodipodi:ry="46.691029"
         sodipodi:start="0"
         sodipodi:end="6.2799215"
         sodipodi:open="true"
         sodipodi:arc-type="arc"
         d="m 1292.7591,1235.0935 a 46.691029,46.691029 0 0 1 -46.6529,46.691 46.691029,46.691029 0 0 1 -46.7291,-46.6148 46.691029,46.691029 0 0 1 46.5767,-46.7671 46.691029,46.691029 0 0 1 46.8051,46.5385" />
      <path
         style="font-weight:bold;font-size:167.185px;line-height:1.25;font-family:'Noto Looped Lao';-inkscape-font-specification:'Noto Looped Lao, Bold';fill:#f9d59d;fill-opacity:1;stroke:none;stroke-width:9.89828;stroke-linecap:round;stroke-opacity:1;paint-order:markers stroke fill"
         id="path89091"
         sodipodi:type="arc"
         sodipodi:cx="111.17841"
         sodipodi:cy="1210.3494"
         sodipodi:rx="76.846542"
         sodipodi:ry="76.846542"
         sodipodi:start="0"
         sodipodi:end="6.2799215"
         sodipodi:open="true"
         sodipodi:arc-type="arc"
         d="m 188.02496,1210.3494 a 76.846542,76.846542 0 0 1 -76.78384,76.8465 76.846542,76.846542 0 0 1 -76.909147,-76.7211 76.846542,76.846542 0 0 1 76.658327,-76.9717 76.846542,76.846542 0 0 1 77.03425,76.5955" />
      <path
         style="font-weight:bold;font-size:167.185px;line-height:1.25;font-family:'Noto Looped Lao';-inkscape-font-specification:'Noto Looped Lao, Bold';fill:#f7c679;fill-opacity:1;stroke:none;stroke-width:7.0306;stroke-linecap:round;stroke-opacity:1;paint-order:markers stroke fill"
         id="path89795"
         sodipodi:type="arc"
         sodipodi:cx="1546.3407"
         sodipodi:cy="1418.2562"
         sodipodi:rx="108.19119"
         sodipodi:ry="108.19119"
         sodipodi:start="0"
         sodipodi:end="6.2799215"
         sodipodi:open="true"
         sodipodi:arc-type="arc"
         d="m 1654.5319,1418.2562 a 108.19119,108.19119 0 0 1 -108.1029,108.1912 108.19119,108.19119 0 0 1 -108.2794,-108.0146 108.19119,108.19119 0 0 1 107.9263,-108.3674 108.19119,108.19119 0 0 1 108.4554,107.8377" />
    </g>
  </g>
</svg>
